<svg width="32" height="32" viewBox="0 0 32 32" fill="none" xmlns="http://www.w3.org/2000/svg">
<g clip-path="url(#clip0_629_16181)">
<path d="M22.2987 9.70973C21.9087 9.31973 21.2787 9.31973 20.8887 9.70973L15.9988 14.5897L11.1088 9.69973C10.7188 9.30973 10.0888 9.30973 9.69875 9.69973C9.30875 10.0897 9.30875 10.7197 9.69875 11.1097L14.5888 15.9997L9.69875 20.8897C9.30875 21.2797 9.30875 21.9097 9.69875 22.2997C10.0888 22.6897 10.7188 22.6897 11.1088 22.2997L15.9988 17.4097L20.8887 22.2997C21.2787 22.6897 21.9087 22.6897 22.2987 22.2997C22.6887 21.9097 22.6887 21.2797 22.2987 20.8897L17.4087 15.9997L22.2987 11.1097C22.6787 10.7297 22.6787 10.0897 22.2987 9.70973Z" fill="black"/>
</g>
<defs>
<clipPath id="clip0_629_16181">
<rect width="24" height="24" fill="white" transform="translate(4 4)"/>
</clipPath>
</defs>
</svg>
