<svg width="88" height="88" viewBox="0 0 88 88" fill="none" xmlns="http://www.w3.org/2000/svg">
<g filter="url(#filter0_d_552_5525)">
<g filter="url(#filter1_b_552_5525)">
<rect x="24" y="20" width="40" height="40" rx="20" fill="#010101" fill-opacity="0.4"/>
</g>
<g clip-path="url(#clip0_552_5525)">
<path d="M47.8469 47.5102C47.4385 47.9185 46.7802 47.9185 46.3719 47.5102L39.4469 40.5852C39.1219 40.2602 39.1219 39.7352 39.4469 39.4102L46.3719 32.4852C46.7802 32.0768 47.4385 32.0768 47.8469 32.4852C48.2552 32.8935 48.2552 33.5518 47.8469 33.9602L41.8135 40.0018L47.8552 46.0435C48.2552 46.4435 48.2552 47.1102 47.8469 47.5102Z" fill="white"/>
</g>
</g>
<defs>
<filter id="filter0_d_552_5525" x="0" y="0" width="88" height="88" filterUnits="userSpaceOnUse" color-interpolation-filters="sRGB">
<feFlood flood-opacity="0" result="BackgroundImageFix"/>
<feColorMatrix in="SourceAlpha" type="matrix" values="0 0 0 0 0 0 0 0 0 0 0 0 0 0 0 0 0 0 127 0" result="hardAlpha"/>
<feOffset dy="4"/>
<feGaussianBlur stdDeviation="12"/>
<feComposite in2="hardAlpha" operator="out"/>
<feColorMatrix type="matrix" values="0 0 0 0 0.690196 0 0 0 0 0.690196 0 0 0 0 0.690196 0 0 0 0.16 0"/>
<feBlend mode="normal" in2="BackgroundImageFix" result="effect1_dropShadow_552_5525"/>
<feBlend mode="normal" in="SourceGraphic" in2="effect1_dropShadow_552_5525" result="shape"/>
</filter>
<filter id="filter1_b_552_5525" x="-176" y="-180" width="440" height="440" filterUnits="userSpaceOnUse" color-interpolation-filters="sRGB">
<feFlood flood-opacity="0" result="BackgroundImageFix"/>
<feGaussianBlur in="BackgroundImageFix" stdDeviation="100"/>
<feComposite in2="SourceAlpha" operator="in" result="effect1_backgroundBlur_552_5525"/>
<feBlend mode="normal" in="SourceGraphic" in2="effect1_backgroundBlur_552_5525" result="shape"/>
</filter>
<clipPath id="clip0_552_5525">
<rect width="20" height="20" fill="white" transform="matrix(1 0 0 -1 34 50)"/>
</clipPath>
</defs>
</svg>
